<svg width="56" height="57" viewBox="0 0 56 57" fill="none" xmlns="http://www.w3.org/2000/svg">
<path d="M27.9992 2.99022C14.1847 2.99022 2.94693 14.3931 2.94693 28.4105C2.94693 37.6308 7.89659 46.0879 15.7352 50.559L15.7137 22.5721L33.0383 7.02762L33.0416 31.9167L40.2839 36.0441V50.5481C48.11 46.0711 53.0506 37.6199 53.0506 28.4105C53.0514 14.3931 41.8136 2.99022 27.9992 2.99022ZM25.9542 53.8215C27.8037 54.1081 29.2258 54.0157 30.0988 53.8862L30.0955 33.6682L25.955 31.3066V53.8215H25.9542ZM28.3181 57C27.1593 57 25.7612 56.8798 24.1627 56.5226L23.0056 56.2655V26.1968L30.0955 30.2376L30.0938 13.6628L18.6622 23.9184L18.6863 55.2897L16.609 54.3501C6.5192 49.7808 0 39.5982 0 28.4105C0 12.745 12.5605 0 27.9992 0C43.4395 0 56 12.745 56 28.4105C56 39.5856 49.4883 49.764 39.4134 54.3392L37.3378 55.2822V37.7955L33.0441 35.3473L33.0457 56.1403L32.0667 56.4932C31.9831 56.5243 30.6256 57 28.3181 57Z" fill="white"/>
</svg>
